<?xml version="1.0" encoding="UTF-8" standalone="no"?>
<svg
   viewBox="0 0 512 512"
   width="512"
   height="512"
   version="1.1"
   id="svg1"
   sodipodi:docname="krazyhide_logo.svg"
   inkscape:version="1.4.3 (0d15f75042, 2025-12-25)"
   xmlns:inkscape="http://www.inkscape.org/namespaces/inkscape"
   xmlns:sodipodi="http://sodipodi.sourceforge.net/DTD/sodipodi-0.dtd"
   xmlns="http://www.w3.org/2000/svg"
   xmlns:svg="http://www.w3.org/2000/svg">
  <defs
     id="defs1" />
  <sodipodi:namedview
     id="namedview1"
     pagecolor="#ffffff"
     bordercolor="#000000"
     borderopacity="0.25"
     inkscape:showpageshadow="2"
     inkscape:pageopacity="0.0"
     inkscape:pagecheckerboard="0"
     inkscape:deskcolor="#d1d1d1"
     inkscape:zoom="1.6875"
     inkscape:cx="256"
     inkscape:cy="256"
     inkscape:window-width="1908"
     inkscape:window-height="1028"
     inkscape:window-x="0"
     inkscape:window-y="0"
     inkscape:window-maximized="1"
     inkscape:current-layer="svg1" />
  <!-- Background layer: Change the fill color to match your app's primary or surface color -->
  <rect
     width="512"
     height="512"
     fill="#121212"
     rx="115"
     ry="115"
     id="rect1" />
  <!-- 
      Text layer: Uses Google Sans Flex. 
      font-stretch="125%" gives it that "Wide" look similar to your app header.
      font-weight="700" gives it the bold presence.
    -->
  <path
     d="m 72.784971,267.44437 -0.082,-16.482 26.65,-31.406 q 0,0 0,0 0,0 0,0 h 16.809999 q 0,0 0,0 0,0 0,0 l -25.829999,29.848 z m -9.348,10.824 q 0,0 0,0 0,0 0,0 v -58.712 q 0,0 0,0 0,0 0,0 h 15.088 q 0,0 0,0 0,0 0,0 v 58.712 q 0,0 0,0 0,0 0,0 z m 36.776999,0 q 0,0 0,0 0,0 0,0 l -18.326999,-29.52 10.578,-9.471 24.804999,38.991 q 0,0 0,0 0,0 0,0 z m 19.24604,0 q 0,0 0,0 0,0 0,0 v -43.255 q 0,0 0,0 0,0 0,0 h 12.136 q 0,0 0,0 0,0 0,0 v 7.79 l -0.984,-1.107 h 0.984 q 2.091,-3.936 4.879,-5.74 2.829,-1.804 5.74,-1.804 0.902,0 1.845,0.164 0.943,0.164 1.558,0.328 0.656,0.164 0.656,0.164 0,0 0,0 v 11.89 q 0,0 0,0 0,0 -0.697,-0.164 -0.656,-0.164 -1.804,-0.328 -1.148,-0.205 -2.132,-0.205 -3.608,0 -6.273,2.665 -2.624,2.624 -2.624,7.421 v 22.181 q 0,0 0,0 0,0 0,0 z m 42.53398,0.861 q -6.929,0 -11.562,-3.69 -4.633,-3.69 -4.633,-9.758 v 0 q 0,-6.478 5.125,-10.332 5.166,-3.854 13.53,-3.854 3.034,0 5.781,0.574 2.747,0.533 5.207,1.558 v -2.091 q 0,-3.444 -2.46,-5.33 -2.46,-1.886 -5.904,-1.886 -1.845,0 -3.567,0.492 -1.681,0.492 -3.157,1.476 -1.476,0.943 -3.034,2.337 -1.558,1.394 -1.558,1.394 0,0 0,0 l -8.569,-7.011 q 0,0 0,0 0,0 2.337,-2.05 2.378,-2.091 5.166,-3.649 2.788,-1.558 6.191,-2.337 3.403,-0.82 7.831,-0.82 8.938,0 14.473,4.387 5.535,4.387 5.535,12.505 v 27.224 q 0,0 0,0 0,0 0,0 h -12.587 q 0,0 0,0 0,0 0,0 v -8.364 l 2.132,2.255 h -2.132 q -2.419,3.485 -5.863,5.248 -3.444,1.722 -8.282,1.722 z m 4.059,-9.143 q 4.428,0 6.888,-2.829 2.501,-2.87 2.501,-5.863 v -0.492 q -1.394,-0.861 -3.608,-1.435 -2.214,-0.574 -4.961,-0.574 -3.649,0 -5.904,1.517 -2.255,1.476 -2.255,4.223 v 0 q 0,2.583 2.05,4.018 2.091,1.435 5.289,1.435 z m 25.96994,8.282 q 0,0 0,0 0,0 0,0 v -8.61 q 0,0 0,0 0,0 0,0 l 21.32,-24.19 h -20.5 q 0,0 0,0 0,0 0,0 v -10.455 q 0,0 0,0 0,0 0,0 h 37.966 q 0,0 0,0 0,0 0,0 v 8.159 q 0,0 0,0 0,0 0,0 l -20.869,24.641 h 21.115 q 0,0 0,0 0,0 0,0 v 10.455 q 0,0 0,0 0,0 0,0 z m 46.83902,15.58 q 0,0 -0.205,0 -0.205,0 0.205,0 l 8.405,-18.081 -0.492,4.264 -16.974,-45.018 q 0,0 0,0 0,0 0,0 h 13.776 q 0,0 0,0 0,0 0,0 l 9.102,26.978 0.574,1.681 v 0 l 0.533,-1.64 9.102,-27.019 q -0.041,0 -0.041,0 0.041,0 0.041,0 h 13.817 q 0,0 0,0 0,0 0,0 l -23.903,58.835 q 0.164,0 0.082,0 -0.082,0 -0.082,0 z m 76.11303,-15.58 q 0,0 0,0 0,0 0,0 v -58.712 q 0,0 0,0 0,0 0,0 h 15.088 q 0,0 0,0 0,0 0,0 v 58.712 q 0,0 0,0 0,0 0,0 z m -36.121,0 q 0,0 0,0 0,0 0,0 v -58.712 q 0,0 0,0 0,0 0,0 h 15.088 q 0,0 0,0 0,0 0,0 v 58.712 q 0,0 0,0 0,0 0,0 z m 7.216,-22.673 v -13.53 h 36.859 v 13.53 z m 52.37407,22.673 q 0,0 0,0 0,0 0,0 v -43.255 q 0,0 0,0 0,0 0,0 h 13.284 q 0,0 0,0 0,0 0,0 v 43.255 q 0,0 0,0 0,0 0,0 z m 6.683,-46.904 q -3.198,0 -5.494,-2.255 -2.255,-2.255 -2.255,-5.412 0,-3.239 2.296,-5.371 2.296,-2.173 5.453,-2.173 3.362,0 5.535,2.173 2.214,2.132 2.214,5.371 0,3.157 -2.214,5.412 -2.173,2.255 -5.535,2.255 z m 31.58695,47.765 q -8.692,0 -14.473,-6.232 -5.781,-6.232 -5.781,-15.949 v 0 q 0,-9.881 5.904,-16.318 5.945,-6.478 14.883,-6.478 3.977,0 7.585,1.558 3.649,1.517 5.863,4.469 l -0.328,-0.287 v -20.336 q 0,0 0,0 0,0 0,0 h 13.284 q 0,0 0,0 0,0 0,0 v 58.712 q 0,0 0,0 0,0 0,0 h -12.382 q 0,0 0,0 0,0 0,0 v -7.626 l 0.984,0.943 -0.656,0.533 q -2.132,3.321 -6.027,5.166 -3.895,1.845 -8.856,1.845 z m 3.321,-11.234 q 4.715,0 7.749,-3.157 3.034,-3.198 3.034,-7.872 v 0 q 0,-4.879 -3.116,-7.954 -3.075,-3.116 -7.667,-3.116 -4.756,0 -7.872,3.034 -3.075,3.034 -3.075,8.036 v 0 q 0,5.002 3.116,8.036 3.116,2.993 7.831,2.993 z m 50.93901,11.234 q -10.004,0 -16.687,-6.355 -6.683,-6.396 -6.683,-16.154 v 0 q 0,-9.717 6.601,-16.072 6.601,-6.396 16.359,-6.396 9.922,0 15.949,6.109 6.027,6.109 6.027,15.498 v 4.223 q 0,0 0,0 0,0 0,0 h -38.335 v -7.011 h 26.732 v 0 q -0.369,-3.526 -3.075,-5.904 -2.706,-2.378 -7.134,-2.378 -4.633,0 -7.995,3.403 -3.362,3.403 -3.362,8.897 v 0 q 0,5.494 3.526,8.815 3.526,3.28 8.323,3.28 2.46,0 4.346,-0.656 1.927,-0.697 3.526,-2.05 1.64,-1.394 3.198,-4.018 0,0 0,0 0,0 0,0 l 9.266,4.51 q 0,0 0,0 0,0 0,0 -2.583,4.633 -5.412,7.134 -2.829,2.501 -6.478,3.813 -3.649,1.312 -8.692,1.312 z"
     id="text1"
     style="font-weight:700;font-size:82px;font-family:'Google Sans Flex', 'Google Sans', sans-serif;letter-spacing:-1.5;dominant-baseline:central;text-anchor:middle;fill:#ffffff"
     aria-label="KrazyHide" />
</svg>
